<svg xmlns="http://www.w3.org/2000/svg" xmlns:xlink="http://www.w3.org/1999/xlink"><symbol viewBox="0 0 32 28" id="check"><path d="M30.7 0C20.3 7.9 10.2 18.5 10.2 18.5L3 12l-3 3.1C3 17.9 9.8 25.2 12.2 28 18.7 17.1 25.5 8.9 32 1.4L30.7 0z"/></symbol><symbol viewBox="0 0 330 140" id="dyn-logo-white"><style>.bst0{fill:#fff}.bst1{clip-path:url(#bSVGID_2_)}.bst2{clip-path:url(#bSVGID_4_)}.bst3{fill:url(#bSVGID_5_)}.bst4{clip-path:url(#bSVGID_7_)}.bst5{fill:url(#bSVGID_8_)}.bst6{clip-path:url(#bSVGID_10_)}.bst7{clip-path:url(#bSVGID_12_);fill:url(#bSVGID_13_)}</style><g id="bType-logo-text"><path class="bst0" d="M173.1 80.8V91.7c0 1.5.1 2.5.1 3 1 .1 2.1.1 3.5.2 1.3.1 3 .1 5 .1 7.3 0 13-2.5 17.2-7.4 4.2-5 6.4-12.4 6.4-22.5 0-4-.5-7.6-1.6-10.7-1.1-3.1-2.6-5.8-4.5-8s-4.2-3.9-6.9-5.1c-2.7-1.2-5.7-1.8-9.1-1.8-2.3 0-4.2 0-5.6.1-1.4.1-2.9.2-4.4.3 0 .4 0 1.4-.1 3v37.9zm-14.5-34.3c-.1-4.1-.3-8.3-.6-12.5 1.1.1 2.3.2 3.6.3 1.3.1 2.7.1 4.3.1 2.1 0 4.5-.1 7.1-.2 2.6-.2 6.1-.2 10.3-.2 5.5 0 10.6.5 15.1 1.5s8.4 2.7 11.7 5.1c3.3 2.4 5.8 5.6 7.6 9.6 1.8 4 2.7 9.1 2.7 15.2 0 5.3-.9 10.1-2.7 14.4-1.8 4.3-4.2 8-7.2 11-3.1 3.1-6.6 5.4-10.6 7-4 1.6-8.3 2.4-12.9 2.4-4.8 0-8.9 0-12.3-.1-3.4-.1-6.4-.1-8.9-.1h-4.3c-1.3 0-2.5.1-3.6.2.3-4 .4-8.1.6-12.2.1-4.2.2-8.9.2-14.2V60.7c.1-5.3.1-10.1-.1-14.2M252.7 75.9c1-2.5 1.9-5 2.7-7.4.9-2.4 1.7-4.8 2.5-7.1.8-2.4 1.6-4.9 2.5-7.5.7.1 1.4.2 2 .3.6.1 1.2.1 1.9.1s1.3 0 1.9-.1c.6-.1 1.3-.2 2.1-.3-.3.8-1.1 2.6-2.3 5.3-1.2 2.7-2.6 6.1-4.3 10.1-1.7 4-3.6 8.5-5.6 13.3-2.1 4.9-4.1 9.8-6.2 14.8-2.1 5-4.1 9.9-6.1 14.8s-3.7 9.3-5.2 13.3c-.7-.1-1.4-.2-2-.3-.6-.1-1.3-.1-2-.1s-1.4 0-2 .1c-.6.1-1.3.2-2 .3l6.3-12.6c2.1-4.1 4.1-8.3 6-12.6-1.5-3.7-3.3-7.8-5.2-12.4-1.9-4.6-3.8-9.2-5.6-13.6-1.8-4.4-3.5-8.5-5-12.1-1.5-3.7-2.7-6.5-3.4-8.4l3.6.3c1.2.1 2.4.1 3.6.1 1.2 0 2.4 0 3.6-.1 1.2-.1 2.3-.2 3.6-.3 1.9 5.1 3.7 10.1 5.6 15.1 1.9 5 3.9 10 5.9 15.1 1.1-2.8 2.1-5.6 3.1-8.1M287.1 61.1c1.8-2.7 3.9-4.8 6.3-6.3s5.2-2.2 8.2-2.2c4.8 0 8.5 1.4 11.1 4.2 2.6 2.8 3.9 7.3 3.9 13.5 0 3.3-.1 6.2-.2 8.7-.1 2.5-.2 5-.2 7.5 0 2.1 0 4.3.1 6.7.1 2.4.2 4.7.3 7-.8-.1-1.9-.2-3.2-.2h-8c-1.3 0-2.3.1-3.2.2.4-3.3.7-7.3.9-11.8.1-4.5.2-9.7.2-15.6 0-4-.7-7-2.1-8.9-1.4-1.9-3.3-2.8-5.8-2.8-2.9 0-5 1.3-6.4 3.8-1.3 2.5-2 6-2 10.4v3.9c0 3.9 0 7.6.1 11.1s.3 6.8.6 10c-.8-.1-1.9-.2-3.1-.2h-8.2c-1.2 0-2.3.1-3.2.2.3-3.2.5-6.6.6-10 .1-3.5.1-7.2.1-11.1v-3.9c0-3.9 0-7.6-.1-11-.1-3.4-.3-6.9-.6-10.4 1.2.1 2.3.2 3.4.3 1.1.1 2.3.1 3.4.1s2.3 0 3.4-.1 2.3-.2 3.6-.3l-.4 7.2h.5zM304.1 110.2c.4.2.9.4 1.4.4 1 0 1.5-.5 1.5-1.3 0-.7-.4-1.1-1.3-1.5-1-.4-1.6-.9-1.6-1.8s.8-1.6 1.9-1.6c.6 0 1.1.2 1.3.3l-.2.4c-.2-.1-.6-.3-1.1-.3-1 0-1.4.7-1.4 1.2 0 .7.4 1.1 1.3 1.4 1 .4 1.6.9 1.6 1.9 0 .9-.7 1.8-2 1.8-.6 0-1.2-.2-1.5-.4l.1-.5zM314.1 107.8c-.1-1-.1-2.1-.1-2.8-.2.7-.5 1.4-.9 2.4l-1.3 3.5h-.3l-1.3-3.4c-.4-1-.6-1.8-.8-2.5 0 .7-.1 1.9-.1 2.9l-.2 2.9h-.4l.5-6.4h.5l1.4 3.7c.3.8.5 1.4.7 2.1l.7-2.1 1.4-3.7h.5l.4 6.4h-.4l-.3-3z"/></g><g id="bOrb"><defs><path id="bSVGID_1_" d="M19.9 38.1c-5.7 9.2-9.1 20.1-9.1 31.7 0 11.6 3.3 22.4 9 31.6 5.1 7 22.4 12 33.1 11.5 7.5-.3 14.6-2 21.1-4.8-25.2-7.1-43.7-30.3-43.7-57.8 0-7.6 1.4-15 4-21.7-5.7 1.8-10.9 4.8-14.4 9.5"/></defs><clipPath id="bSVGID_2_"><use xlink:href="#bSVGID_1_" overflow="visible"/></clipPath><g class="bst1"><defs><path id="bSVGID_3_" d="M10.3 28.1h64.1v85.5H10.3z"/></defs><clipPath id="bSVGID_4_"><use xlink:href="#bSVGID_3_" overflow="visible"/></clipPath><g class="bst2"><linearGradient id="bSVGID_5_" gradientUnits="userSpaceOnUse" x1="-41.915" y1="-12.553" x2="34.658" y2="64.02" gradientTransform="matrix(0 -1 -1 0 67.868 67.87)"><stop offset=".006" stop-color="#fff"/><stop offset=".065" stop-color="#dcdcdc"/><stop offset=".164" stop-color="#a9a9a9"/><stop offset=".266" stop-color="#7c7c7c"/><stop offset=".372" stop-color="#565656"/><stop offset=".48" stop-color="#373737"/><stop offset=".594" stop-color="#1f1f1f"/><stop offset=".713" stop-color="#0d0d0d"/><stop offset=".842" stop-color="#030303"/><stop offset="1"/></linearGradient><path class="bst3" d="M9.5 27.5h65.2v87.9H9.5z"/></g></g><g><defs><path id="bSVGID_6_" d="M19.8 38.3c9.2-5.7 20-9 31.6-9 28 0 51.6 19.2 58.2 45.2C113 67.3 115 59.4 115 51c0-11.6-4.9-26-12.5-32.2-9.2-5.7-20-9-31.5-9-21.8 0-41 11.4-51.2 28.5"/></defs><clipPath id="bSVGID_7_"><use xlink:href="#bSVGID_6_" overflow="visible"/></clipPath><g class="bst4"><linearGradient id="bSVGID_8_" gradientUnits="userSpaceOnUse" x1="14.881" y1="10.18" x2="121.699" y2="71.851"><stop offset="0" stop-color="#fff"/><stop offset=".027" stop-color="#f0f0f0"/><stop offset=".14" stop-color="#b9b9b9"/><stop offset=".256" stop-color="#878787"/><stop offset=".373" stop-color="#5e5e5e"/><stop offset=".491" stop-color="#3c3c3c"/><stop offset=".612" stop-color="#222"/><stop offset=".735" stop-color="#0f0f0f"/><stop offset=".862" stop-color="#040404"/><stop offset="1"/></linearGradient><path class="bst5" d="M16.4 7.6h103.8v66.9H16.4z"/></g></g><g><defs><path id="bSVGID_9_" d="M111.5 50.2c0 33.2-26.9 60.1-60.1 60.1-11.6 0-22.4-3.2-31.6-9 10.5 17.2 29.5 28.5 51.1 28.5 33.2 0 60.1-26.9 60.1-60.1 0-21.6-11.5-41.3-28.6-51 6 8.8 9.1 19.9 9.1 31.5"/></defs><clipPath id="bSVGID_10_"><use xlink:href="#bSVGID_9_" overflow="visible"/></clipPath><g class="bst6"><defs><path id="bSVGID_11_" d="M19.5 18.2h112.2v112.2H19.5z"/></defs><clipPath id="bSVGID_12_"><use xlink:href="#bSVGID_11_" overflow="visible"/></clipPath><linearGradient id="bSVGID_13_" gradientUnits="userSpaceOnUse" x1="122.921" y1="137.236" x2="27.836" y2="11.054"><stop offset=".227" stop-color="#fcee21"/><stop offset=".238" stop-color="#fcee2c"/><stop offset=".443" stop-color="#fdf49a"/><stop offset=".584" stop-color="#fef9ce"/><stop offset=".65" stop-color="#fefbe1"/><stop offset="1" stop-color="#fdf6a8"/></linearGradient><path class="bst7" d="M19 17.7h112.8v112.8H19z"/></g></g></g></symbol></svg>