<?xml version="1.0" encoding="utf-8"?>
<!-- Generator: Adobe Illustrator 20.0.0, SVG Export Plug-In . SVG Version: 6.00 Build 0)  -->
<svg version="1.1" xmlns="http://www.w3.org/2000/svg" xmlns:xlink="http://www.w3.org/1999/xlink" x="0px" y="0px"
	 viewBox="0 0 330 140" style="enable-background:new 0 0 330 140;" xml:space="preserve">
<style type="text/css">
	.st0{fill:#FFFFFF;}
	.st1{clip-path:url(#SVGID_2_);}
	.st2{clip-path:url(#SVGID_4_);}
	.st3{fill:url(#SVGID_5_);}
	.st4{clip-path:url(#SVGID_7_);}
	.st5{fill:url(#SVGID_8_);}
	.st6{clip-path:url(#SVGID_10_);}
	.st7{clip-path:url(#SVGID_12_);fill:url(#SVGID_13_);}
</style>

<g id="Type-logo-text">
	<path class="st0" d="M173.1,80.8v5.8c0,1.9,0,3.6,0,5.1c0,1.5,0.1,2.5,0.1,3c1,0.1,2.1,0.1,3.5,0.2c1.3,0.1,3,0.1,5,0.1
		c7.3,0,13-2.5,17.2-7.4c4.2-5,6.4-12.4,6.4-22.5c0-4-0.5-7.6-1.6-10.7c-1.1-3.1-2.6-5.8-4.5-8c-1.9-2.2-4.2-3.9-6.9-5.1
		c-2.7-1.2-5.7-1.8-9.1-1.8c-2.3,0-4.2,0-5.6,0.1c-1.4,0.1-2.9,0.2-4.4,0.3c0,0.4,0,1.4-0.1,3c0,1.5,0,3.3,0,5.2V54v4.8v17.2V80.8
		L173.1,80.8z M158.6,46.5c-0.1-4.1-0.3-8.3-0.6-12.5c1.1,0.1,2.3,0.2,3.6,0.3c1.3,0.1,2.7,0.1,4.3,0.1c2.1,0,4.5-0.1,7.1-0.2
		c2.6-0.2,6.1-0.2,10.3-0.2c5.5,0,10.6,0.5,15.1,1.5c4.5,1,8.4,2.7,11.7,5.1c3.3,2.4,5.8,5.6,7.6,9.6c1.8,4,2.7,9.1,2.7,15.2
		c0,5.3-0.9,10.1-2.7,14.4c-1.8,4.3-4.2,8-7.2,11c-3.1,3.1-6.6,5.4-10.6,7c-4,1.6-8.3,2.4-12.9,2.4c-4.8,0-8.9,0-12.3-0.1
		c-3.4-0.1-6.4-0.1-8.9-0.1h-4.3c-1.3,0-2.5,0.1-3.6,0.2c0.3-4,0.4-8.1,0.6-12.2c0.1-4.2,0.2-8.9,0.2-14.2V60.7
		C158.8,55.4,158.8,50.6,158.6,46.5"/>
	<path class="st0" d="M252.7,75.9c1-2.5,1.9-5,2.7-7.4c0.9-2.4,1.7-4.8,2.5-7.1c0.8-2.4,1.6-4.9,2.5-7.5c0.7,0.1,1.4,0.2,2,0.3
		c0.6,0.1,1.2,0.1,1.9,0.1s1.3,0,1.9-0.1c0.6-0.1,1.3-0.2,2.1-0.3c-0.3,0.8-1.1,2.6-2.3,5.3c-1.2,2.7-2.6,6.1-4.3,10.1
		c-1.7,4-3.6,8.5-5.6,13.3c-2.1,4.9-4.1,9.8-6.2,14.8c-2.1,5-4.1,9.9-6.1,14.8c-2,4.9-3.7,9.3-5.2,13.3c-0.7-0.1-1.4-0.2-2-0.3
		c-0.6-0.1-1.3-0.1-2-0.1c-0.7,0-1.4,0-2,0.1c-0.6,0.1-1.3,0.2-2,0.3c2.1-4.2,4.2-8.4,6.3-12.6c2.1-4.1,4.1-8.3,6-12.6
		c-1.5-3.7-3.3-7.8-5.2-12.4c-1.9-4.6-3.8-9.2-5.6-13.6c-1.8-4.4-3.5-8.5-5-12.1c-1.5-3.7-2.7-6.5-3.4-8.4c1.2,0.1,2.4,0.2,3.6,0.3
		c1.2,0.1,2.4,0.1,3.6,0.1c1.2,0,2.4,0,3.6-0.1c1.2-0.1,2.3-0.2,3.6-0.3c1.9,5.1,3.7,10.1,5.6,15.1c1.9,5,3.9,10,5.9,15.1
		C250.7,81.2,251.7,78.4,252.7,75.9"/>
	<path class="st0" d="M287.1,61.1c1.8-2.7,3.9-4.8,6.3-6.3c2.4-1.5,5.2-2.2,8.2-2.2c4.8,0,8.5,1.4,11.1,4.2
		c2.6,2.8,3.9,7.3,3.9,13.5c0,3.3-0.1,6.2-0.2,8.7c-0.1,2.5-0.2,5-0.2,7.5c0,2.1,0,4.3,0.1,6.7c0.1,2.4,0.2,4.7,0.3,7
		c-0.8-0.1-1.9-0.2-3.2-0.2h-4h-4c-1.3,0-2.3,0.1-3.2,0.2c0.4-3.3,0.7-7.3,0.9-11.8c0.1-4.5,0.2-9.7,0.2-15.6c0-4-0.7-7-2.1-8.9
		c-1.4-1.9-3.3-2.8-5.8-2.8c-2.9,0-5,1.3-6.4,3.8c-1.3,2.5-2,6-2,10.4v3.9c0,3.9,0,7.6,0.1,11.1c0.1,3.5,0.3,6.8,0.6,10
		c-0.8-0.1-1.9-0.2-3.1-0.2h-4.1h-4.1c-1.2,0-2.3,0.1-3.2,0.2c0.3-3.2,0.5-6.6,0.6-10c0.1-3.5,0.1-7.2,0.1-11.1v-3.9
		c0-3.9,0-7.6-0.1-11c-0.1-3.4-0.3-6.9-0.6-10.4c1.2,0.1,2.3,0.2,3.4,0.3c1.1,0.1,2.3,0.1,3.4,0.1s2.3,0,3.4-0.1
		c1.1-0.1,2.3-0.2,3.6-0.3l-0.4,7.2H287.1L287.1,61.1z"/>
	<path class="st0" d="M304.1,110.2c0.4,0.2,0.9,0.4,1.4,0.4c1,0,1.5-0.5,1.5-1.3c0-0.7-0.4-1.1-1.3-1.5c-1-0.4-1.6-0.9-1.6-1.8
		c0-0.9,0.8-1.6,1.9-1.6c0.6,0,1.1,0.2,1.3,0.3l-0.2,0.4c-0.2-0.1-0.6-0.3-1.1-0.3c-1,0-1.4,0.7-1.4,1.2c0,0.7,0.4,1.1,1.3,1.4
		c1,0.4,1.6,0.9,1.6,1.9c0,0.9-0.7,1.8-2,1.8c-0.6,0-1.2-0.2-1.5-0.4L304.1,110.2L304.1,110.2z"/>
	<path class="st0" d="M314.1,107.8c-0.1-1-0.1-2.1-0.1-2.8h0c-0.2,0.7-0.5,1.4-0.9,2.4l-1.3,3.5h-0.3l-1.3-3.4
		c-0.4-1-0.6-1.8-0.8-2.5h0c0,0.7-0.1,1.9-0.1,2.9l-0.2,2.9h-0.4l0.5-6.4h0.5l1.4,3.7c0.3,0.8,0.5,1.4,0.7,2.1h0
		c0.2-0.6,0.4-1.2,0.7-2.1l1.4-3.7h0.5l0.4,6.4h-0.4L314.1,107.8L314.1,107.8z"/>
</g>
<g id="Orb">
	<g>
		<g>
			<defs>
				<path id="SVGID_1_" d="M19.9,38.1c-5.7,9.2-9.1,20.1-9.1,31.7c0,11.6,3.3,22.4,9,31.6c5.1,7,22.4,12,33.1,11.5
					c7.5-0.3,14.6-2,21.1-4.8c-25.2-7.1-43.7-30.3-43.7-57.8c0-7.6,1.4-15,4-21.7C28.6,30.4,23.4,33.4,19.9,38.1"/>
			</defs>
			<clipPath id="SVGID_2_">
				<use xlink:href="#SVGID_1_"  style="overflow:visible;"/>
			</clipPath>
			<g class="st1">
				<defs>
					<rect id="SVGID_3_" x="10.3" y="28.1" width="64.1" height="85.5"/>
				</defs>
				<clipPath id="SVGID_4_">
					<use xlink:href="#SVGID_3_"  style="overflow:visible;"/>
				</clipPath>
				<g class="st2">
					<g>

							<linearGradient id="SVGID_5_" gradientUnits="userSpaceOnUse" x1="-41.9148" y1="-12.553" x2="34.6579" y2="64.0198" gradientTransform="matrix(0 -1 -1 0 67.8682 67.8691)">
							<stop  offset="6.134970e-03" style="stop-color:#FFFFFF"/>
							<stop  offset="6.516625e-02" style="stop-color:#DCDCDC"/>
							<stop  offset="0.1635" style="stop-color:#A9A9A9"/>
							<stop  offset="0.2663" style="stop-color:#7C7C7C"/>
							<stop  offset="0.3718" style="stop-color:#565656"/>
							<stop  offset="0.4805" style="stop-color:#373737"/>
							<stop  offset="0.5935" style="stop-color:#1F1F1F"/>
							<stop  offset="0.7125" style="stop-color:#0D0D0D"/>
							<stop  offset="0.8418" style="stop-color:#030303"/>
							<stop  offset="1" style="stop-color:#000000"/>
						</linearGradient>
						<rect x="9.5" y="27.5" class="st3" width="65.2" height="87.9"/>
					</g>
				</g>
			</g>
		</g>
		<g>
			<defs>
				<path id="SVGID_6_" d="M19.8,38.3c9.2-5.7,20-9,31.6-9c28,0,51.6,19.2,58.2,45.2c3.4-7.2,5.4-15.1,5.4-23.5
					c0-11.6-4.9-26-12.5-32.2c-9.2-5.7-20-9-31.5-9C49.2,9.8,30,21.2,19.8,38.3"/>
			</defs>
			<clipPath id="SVGID_7_">
				<use xlink:href="#SVGID_6_"  style="overflow:visible;"/>
			</clipPath>
			<g class="st4">
				<g>
					<linearGradient id="SVGID_8_" gradientUnits="userSpaceOnUse" x1="14.8812" y1="10.1795" x2="121.6989" y2="71.8507">
						<stop  offset="0" style="stop-color:#FFFFFF"/>
						<stop  offset="2.725774e-02" style="stop-color:#F0F0F0"/>
						<stop  offset="0.1396" style="stop-color:#B9B9B9"/>
						<stop  offset="0.2556" style="stop-color:#878787"/>
						<stop  offset="0.3727" style="stop-color:#5E5E5E"/>
						<stop  offset="0.4912" style="stop-color:#3C3C3C"/>
						<stop  offset="0.6116" style="stop-color:#222222"/>
						<stop  offset="0.7346" style="stop-color:#0F0F0F"/>
						<stop  offset="0.8618" style="stop-color:#040404"/>
						<stop  offset="1" style="stop-color:#000000"/>
					</linearGradient>
					<rect x="16.4" y="7.6" class="st5" width="103.8" height="66.9"/>
				</g>
			</g>
		</g>
		<g>
			<defs>
				<path id="SVGID_9_" d="M111.5,50.2c0,33.2-26.9,60.1-60.1,60.1c-11.6,0-22.4-3.2-31.6-9c10.5,17.2,29.5,28.5,51.1,28.5
					c33.2,0,60.1-26.9,60.1-60.1c0-21.6-11.5-41.3-28.6-51C108.4,27.5,111.5,38.6,111.5,50.2"/>
			</defs>
			<clipPath id="SVGID_10_">
				<use xlink:href="#SVGID_9_"  style="overflow:visible;"/>
			</clipPath>
			<g class="st6">
				<defs>
					<rect id="SVGID_11_" x="19.5" y="18.2" width="112.2" height="112.2"/>
				</defs>
				<clipPath id="SVGID_12_">
					<use xlink:href="#SVGID_11_"  style="overflow:visible;"/>
				</clipPath>
				<linearGradient id="SVGID_13_" gradientUnits="userSpaceOnUse" x1="122.9209" y1="137.2362" x2="27.8356" y2="11.0539">
					<stop  offset="0.227" style="stop-color:#FCEE21"/>
					<stop  offset="0.2381" style="stop-color:#FCEE2C"/>
					<stop  offset="0.4425" style="stop-color:#FDF49A"/>
					<stop  offset="0.5841" style="stop-color:#FEF9CE"/>
					<stop  offset="0.6503" style="stop-color:#FEFBE1"/>
					<stop  offset="1" style="stop-color:#FDF6A8"/>
				</linearGradient>
				<rect x="19" y="17.7" class="st7" width="112.8" height="112.8"/>
			</g>
		</g>
	</g>
</g>
</svg>
